<svg xmlns="http://www.w3.org/2000/svg" width="1200" height="630" viewBox="0 0 1200 630" role="img" aria-labelledby="ogTitle ogDesc">
  <title id="ogTitle">Mathis Rouvres  Dťveloppeur Web &amp; Product Builder</title>
  <desc id="ogDesc">Portfolio dťveloppeur web full-stack React, Laravel, SaaS et automatisation IA</desc>
  <defs>
    <linearGradient id="bg" x1="0" y1="0" x2="1" y2="1">
      <stop offset="0%" stop-color="#070b14"/>
      <stop offset="55%" stop-color="#0d1321"/>
      <stop offset="100%" stop-color="#131b2e"/>
    </linearGradient>
    <linearGradient id="accent" x1="0" y1="0" x2="1" y2="0">
      <stop offset="0%" stop-color="#22d3ee"/>
      <stop offset="50%" stop-color="#6366f1"/>
      <stop offset="100%" stop-color="#a855f7"/>
    </linearGradient>
    <radialGradient id="glow" cx="72%" cy="28%" r="45%">
      <stop offset="0%" stop-color="#22d3ee" stop-opacity="0.22"/>
      <stop offset="100%" stop-color="#22d3ee" stop-opacity="0"/>
    </radialGradient>
  </defs>
  <rect width="1200" height="630" fill="url(#bg)"/>
  <rect width="1200" height="630" fill="url(#glow)"/>
  <g opacity="0.06" stroke="#94a3b8" stroke-width="1">
    <path d="M0 80H1200M0 160H1200M0 240H1200M0 320H1200M0 400H1200M0 480H1200M0 560H1200"/>
    <path d="M120 0V630M240 0V630M360 0V630M480 0V630M600 0V630M720 0V630M840 0V630M960 0V630M1080 0V630"/>
  </g>
  <rect x="72" y="72" width="6" height="6" rx="3" fill="#22d3ee"/>
  <text x="92" y="82" fill="#64748b" font-family="system-ui,sans-serif" font-size="18" font-weight="600" letter-spacing="0.18em">MATHIS-RVRS.FR</text>
  <text x="72" y="210" fill="#f1f5f9" font-family="system-ui,sans-serif" font-size="68" font-weight="700">Mathis Rouvres</text>
  <text x="72" y="280" fill="url(#accent)" font-family="system-ui,sans-serif" font-size="40" font-weight="600">Dťveloppeur Web &amp; Product Builder</text>
  <text x="72" y="350" fill="#94a3b8" font-family="system-ui,sans-serif" font-size="26">React ∑ Laravel ∑ PHP ∑ UX/UI ∑ SaaS ∑ IA</text>
  <rect x="72" y="400" width="420" height="120" rx="16" fill="#0a0f18" stroke="#1e293b" stroke-width="2"/>
  <rect x="88" y="416" width="72" height="10" rx="5" fill="#334155"/>
  <rect x="88" y="440" width="280" height="8" rx="4" fill="#22d3ee" opacity="0.85"/>
  <rect x="88" y="458" width="220" height="8" rx="4" fill="#4ade80" opacity="0.65"/>
  <rect x="88" y="476" width="180" height="8" rx="4" fill="#a855f7" opacity="0.55"/>
  <rect x="88" y="494" width="120" height="8" rx="4" fill="#64748b" opacity="0.45"/>
  <rect x="540" y="400" width="588" height="120" rx="16" fill="#101828" stroke="#334155" stroke-width="1.5"/>
  <text x="568" y="448" fill="#67e8f9" font-family="ui-monospace,monospace" font-size="22">o portfolio --stack react,laravel,saas</text>
  <text x="568" y="482" fill="#86efac" font-family="ui-monospace,monospace" font-size="22">  build: product ∑ ux ∑ automation </text>
  <text x="568" y="516" fill="#94a3b8" font-family="ui-monospace,monospace" font-size="22">  mode: light / dark</text>
</svg>
